<svg xmlns="http://www.w3.org/2000/svg" viewBox="0 0 190.62 183.3"><defs><style>.cls-1{fill:#aa2d62;}.cls-2{isolation:isolate;}.cls-3{fill:#5c2c77;}.cls-4{fill:#3e1d37;}.cls-5{fill:#3bacae;}.cls-6{fill:#294364;}.cls-7{fill:#a72932;}.cls-8{fill:#d52d38;}.cls-9{fill:#ffc1bf;}.cls-10{fill:#940400;}</style></defs><title>Asset 1</title><g id="Layer_2" data-name="Layer 2"><g id="Layer_1-2" data-name="Layer 1"><g id="duke"><g id="shape-body"><path class="cls-1" d="M27,57.17c-6.9.6-12.3,6.2-15.6,12.3s-4.9,12.9-8,19.1c-2,3.9-6,23.4-1,37.3,4.3,12.1,9.1,24.3,18,33.4,6.9,7,16.2,11.1,25.4,14.6,11.1,4.3,22.5,8,34.4,9.1,19.6,1.8,39.2-3.9,57.1-12,7.3-3.3,14.4-7.1,20.5-12.2a83.24,83.24,0,0,0,12.7-13.8c6.7-8.8,12.7-18.6,15.1-29.4,1.4-6.1,3.4-14.9,4.4-21,1.5-8.4-.1-15.1-1.5-27.1-.3-2.6.2-5.2-.7-7.7-2.2-6.2-9.8-8.9-16.4-8.5s-12.9,2.9-19.5,3.5c-1.8.1-3.9-.1-4.6-1.7a3.32,3.32,0,0,1,.1-2.4c2.3-8,13.2-10.9,16-18.8-24-10-47.9-20.1-71.9-30.1-1.8-.7-3.6-1.5-5.5-1.4-2.2.1-4.2,1.4-6.1,2.6a214.32,214.32,0,0,1-28.3,15.3c-4.4,2-8.9,3.8-12.5,7s-6,8.1-4.9,12.8C43.11,41.57,52,45,61,48.47a32.51,32.51,0,0,1-10.9,10.6c1.7-1,8.1,2.4,6.9,4.8-1.3,2.6-6.8,1.1-8.7.5C41.41,61.87,34.81,56.47,27,57.17Z"/></g><g id="shape-closet" class="cls-2"><path class="cls-3" d="M21,63.27c-7,9.4-13.6,28.5-15.1,40.1-2.2,17.5,3.7,28.6,14.4,42.6,9.9,12.9,24.7,20,40.4,24.4a80.55,80.55,0,0,0,15.5,2.3c10.7.9,21.6,1.9,32.2-.3a100.75,100.75,0,0,0,19.8-6.8c4.4-2,8.9-4.1,12.6-7.2,3-2.6,9.3-5,12.1-7.8,4.8-4.8,9.9-9.5,14.8-14.1,9.6-8.9,12.4-21.1,15-34s2-26.2.2-39.2c-.6-3.9-1.5-8.2-4.9-10.2-2.4-1.4-5.4-1.2-8.1-.9-19.6,2.3-38.4,9-57.4,14.5-9.4,2.8-19.1,5.3-29,5.2-10.1,0-23.7-2.4-33.3-5.2C39,63.57,28.41,54.57,21,63.27Z"/></g><path id="shape-closet-shadow" class="cls-4" d="M45.51,151.57c4.9,3.8,19.3,9.5,25,12a103.14,103.14,0,0,0,20.1,6.7c16.9,3.4,34.8-.2,49.9-8.6s27.2-21.6,35.6-36.5c10.8-19,15.7-42.8,7-62.8a22.54,22.54,0,0,0-3.8-6.3c-2.2-2.4-5-5.5-8.1-5-21.1,3.4-20.5,4.7-31.2,7.4-14.2,3.6-28.9,2.6-40.6,11.4-5.4,4.1-10.5,8.8-16.1,12.6-6.7,4.6-14,8-21.3,11.4-3.9,1.8-7.8,3.6-11.7,5.5-3.1,1.4-9.1,3-11.5,5.4-3.4,3.5-2.7,12.8-2.2,17.3C37.61,133,35,146.37,45.51,151.57Z"/><g id="shape-hat"><path class="cls-5" d="M34.31,38c-.5-2.2-.9-11.7-.1-12.1,15-7.2,33.2-16.4,47.8-24.3,2.1-1.2,4.5-3.3,12.5,1.1,21.1,10,44.8,14.5,64.9,26.4a6.36,6.36,0,0,1,2.9,2.7c.8,1.8-.1,3.9-1.5,5.3s-3.2,2.2-4.8,3.3a19.78,19.78,0,0,0-8.5,19.8c-5.9-2.4-12.2-3.5-18.4-4.6-12.6-2.2-25.1-4.4-37.8-5.8-6.3-.7-12.6-1.2-19-1.4-3.1-.1-6.5.3-9.5-.1a47,47,0,0,1-10.3-3.1C46,42.07,41,40.87,34.31,38Z"/></g><g id="hat-shadow"><path class="cls-6" d="M99,26.37a144.85,144.85,0,0,0,19.4-14.3c.6-.5,16.1,5.2,22.6,7.5,7.7,2.7,14.8,6.9,21.8,11.1a3.13,3.13,0,0,1,1.1.9c1.3,1.6-.3,3.8-1.7,5.2a96.23,96.23,0,0,0-6.3,8c-3,4.2-6,8.5-7.2,13.5-.4,1.6-.6,3.4-2,4.2a4.66,4.66,0,0,1-3.1.4c-4.9-.9-8.4-5.1-12.6-7.8-7.3-4.9-16.6-5.4-25.4-5.8l-33.8-1.5c-2-.1-9,1.2-6.3-2.4.9-1.3,4.1-2.1,5.6-2.9l5.7-3C84.31,35.17,91.71,30.77,99,26.37Z"/></g><g id="shape-face"><path class="cls-7" d="M53.11,78c-4.6,7.6-9.2,15.1-13.8,22.7a23.72,23.72,0,0,0-2.9,6A22.3,22.3,0,0,0,36,113q.3,9.45.9,18.9c.2,2.7.6,5.8,2.9,7.4a9.33,9.33,0,0,0,5,1.3c19.6,1.7,38.8,7,58.1,10.6a7.36,7.36,0,0,0,3.3.1,7.77,7.77,0,0,0,3-1.8c12.6-10.4,25.1-21.1,37.4-31.8a5.48,5.48,0,0,0,1.8-2.2,5.66,5.66,0,0,0,.1-2.6,121.93,121.93,0,0,0-8.2-30.8A14.11,14.11,0,0,0,160.51,69a1.74,1.74,0,0,0-.5-1.4,1.8,1.8,0,0,0-1.6-.2c-3.1.5-6.2,1-9.4,1.5-.1-3-.1-6.1-.2-9.1a9,9,0,0,0-.4-2.8,8.42,8.42,0,0,0-2.2-2.4c-4.3-3.3-8.6-6.4-13.1-9.3a35.62,35.62,0,0,0-8.2-4.3,34.33,34.33,0,0,0-8.4-1.4c-14-.9-28.1.5-42,1.9-3.3.3-6.8.7-9.4,2.6-2.8,2-4.3,5.3-6.1,8.2s-4.3,5.9-7.7,6.3c3.3-.4,7.9,3.1,8,6.5C59.21,69.37,55.21,74.57,53.11,78Z"/></g><g id="shape-shadow"><path class="cls-8" d="M81.51,61.07a3.36,3.36,0,0,0,.5,1.4c.7.9,2.1.9,3.2.8a10.36,10.36,0,0,1-2.7,8.9c2,.2,4.1-.3,6,.2s3.5,3.1,2.2,4.6c-1.2,1.3-3.2.6-4.9.8a5.06,5.06,0,0,0-3.8,7.1c4.7-.6,9.6-.7,14.2.8s8.7,4.8,10.1,9.4a5.83,5.83,0,0,0,.8,1.8,1.27,1.27,0,0,0,1.7.3c.6-.5.4-1.5,0-2.2-3.9-9.2-7.9-18.3-11.8-27.5a51.68,51.68,0,0,1,21.8.1c1.1.3,2.4.6,3,1.6a4.56,4.56,0,0,1,.5,2.3,27.41,27.41,0,0,1-.6,9.5c-1.2,4.2-4.2,7.8-4.6,12.2a5.1,5.1,0,0,0,2.6-1.4c2-1.6,3.9-3.2,5.9-4.9a14,14,0,0,0,3.7-4,12.55,12.55,0,0,0,1-5.1c.2-3.2.4-6.4.7-9.6.3-4.5.6-9.1-.2-13.5s-1.9-10.6-5.4-13.3c-14.4-3.3-26.8-1.2-33.3-1.3a164.38,164.38,0,0,0-19.2,1.7C75.11,45.77,80.71,56.57,81.51,61.07Z"/></g><g id="shape-details"><path class="cls-9" d="M67.61,77.57a3.07,3.07,0,0,0,.9,1.4,8.78,8.78,0,0,0,6,1.2,7.51,7.51,0,0,0,3.2-2.7c1.8-2.3,3.6-4.6,5.4-7,1-1.3,3.7-4.9,2.2-6.7-2.7-3.1-6.3,1.6-7.6,3.2a49.29,49.29,0,0,1-8.6,7.8,3.68,3.68,0,0,0-1.6,1.9A2.22,2.22,0,0,0,67.61,77.57Z"/><path class="cls-9" d="M83.51,78.27c.1-.6,5.2-1,6.6-.9,2.1-1.4.6-3.6-.5-4.3a3.58,3.58,0,0,0-1.1-.4,4.89,4.89,0,0,0-5.2,4.8Z"/><path class="cls-9" d="M98.11,77.57a42.17,42.17,0,0,0,4.5,7.6l3.6,5.1a17.52,17.52,0,0,0,3.8,4.3,6.45,6.45,0,0,0,5.5,1.2c-.6-5.3,2.6-10.1,4.6-15a36.85,36.85,0,0,0,2.7-16.4c.1,2.2-15.7,4.4-17.5,4.5s-6.6-.9-7.9.5C95.91,71,97.41,75.77,98.11,77.57Z"/><path class="cls-9" d="M59.91,64.67c-.1,10.3-9.4,18.6-10.4,28.8-.2,2.4.1,5,1.9,6.6a1.85,1.85,0,0,0,1.7.5,2.58,2.58,0,0,0,1.1-1.2c1.5-3.1,1.9-6.8,4-9.6,2.6-3.5,7.2-4.6,11.1-6.5,1-.5,2.1-1.8,1.2-2.4a1.64,1.64,0,0,0-1-.2c-1.7-.1-3.8-.4-4.4-2s.9-3.5,2.3-4.7c1.7-1.4,9.4-5.9,5.2-7.6C71.51,66,59.91,66.57,59.91,64.67Z"/><path class="cls-9" d="M58.41,104.77c2.8.1,5.7.2,8.5.1,2.4-.1,5.7,1.9,7.7.6.5-.6,3.4-6.1,2.1-11.1a6,6,0,0,0,.5-2.6,12,12,0,0,1-6.5-.6,13.06,13.06,0,0,0-2.1-.8C61.91,88.67,58.11,99.77,58.41,104.77Z"/><path class="cls-9" d="M82.11,105a4.1,4.1,0,0,0,.1,1.1,2.22,2.22,0,0,0,2.2,1.3c2.4.1,4.4-1.6,6.6-2.7,3-1.4,6.5-1.6,9.4-3.2a2.7,2.7,0,0,0,.8-.7,1.7,1.7,0,0,0,0-1,39.26,39.26,0,0,0-2.7-8.4,2.18,2.18,0,0,0-.5-.8,1.5,1.5,0,0,0-1.1-.4c-3.7-.7-9.6.3-13.6,1.7-1.7,1.6-.1,3.5-.2,5.8C83,100.17,82.21,102.47,82.11,105Z"/><path class="cls-9" d="M61.81,50.17a6.11,6.11,0,0,1,.3-1.3c.6-.9,2-.9,2.7-1.8a14.58,14.58,0,0,0,.7-1.9c.7-1.7,2.8-2.1,4.6-2.3a8.21,8.21,0,0,1,3.5.3,6.88,6.88,0,0,1,3.1,3.4,39.14,39.14,0,0,1,4.6,13.6h-1.5c-.7-2.1-2.9-3.2-4.9-3.9a39.87,39.87,0,0,0-9.2-2.2,27.83,27.83,0,0,0-5,0C60.51,52.87,61.61,51.47,61.81,50.17Z"/></g><g id="shape-eye"><path class="cls-10" d="M56.61,60.87a6,6,0,0,0-2.1-1.4,8.83,8.83,0,0,0-4.3-.5c2.3-1.5,3.4-2.4,7.7-2.4,4,0,7.9-.3,11.9-.2-.9-.6-1.8-1.2-2.8-1.8a49.37,49.37,0,0,1,13.1,8.1c.6.5.1.8-.4,1.4a31.84,31.84,0,0,0-10.1-4.6,9.19,9.19,0,0,0-3.7-.4c-3.4.4-5.3,3.4-5.9,6.1C58.71,63.57,58.11,62.27,56.61,60.87Z"/><path class="cls-10" d="M111.21,51.57a9.18,9.18,0,0,0-5.1,4.2c6.6-.4,13.7-.7,19.3,2.9h-15.9a86.25,86.25,0,0,0-8.8.3c-3.5.4-6.9,1.4-10.4,2C90.31,58,108.11,52.77,111.21,51.57Z"/><path class="cls-10" d="M98.51,60.87c5.2-.1,10.4-.3,15.5-.4a12.19,12.19,0,0,1,6,.8,2.7,2.7,0,0,1,1.8,2.2c-6.6.1-13.2.1-19.9.2-1.2,0-4.8.3-5.5-.9C95.51,61.07,97.11,60.87,98.51,60.87Z"/><path class="cls-10" d="M77.41,62.37a2.88,2.88,0,0,1,1.6.3c.5.3.9.8.7,1.3-3,.1-5.9.1-8.9.2-2.3.1-5.9.8-7.9-.2C63.81,60.87,74.71,62.47,77.41,62.37Z"/><path class="cls-10" d="M82.91,79.17a3.1,3.1,0,0,1,2.4-2,9.72,9.72,0,0,1,3.4-.1c.7.1,2.6,0,1.7,1.9-2.9-.9-3.7-1-6.6-.1Z"/></g></g></g></g></svg>